<svg width="20" height="20" viewBox="0 0 20 20" fill="none" xmlns="http://www.w3.org/2000/svg">
  <path d="M2.7999 0.596367L9.9999 7.79637L17.1999 0.618186C17.3417 0.473944 17.5118 0.360688 17.6996 0.285577C17.8874 0.210467 18.0887 0.175137 18.2908 0.181822C18.6874 0.20749 19.0612 0.376639 19.3422 0.657686C19.6233 0.938733 19.7924 1.31246 19.8181 1.70909C19.8201 1.90411 19.7824 2.09749 19.7074 2.27752C19.6324 2.45754 19.5216 2.62045 19.3817 2.75637L12.1599 10L19.3817 17.2436C19.6654 17.5185 19.8224 17.8982 19.8181 18.2909C19.7924 18.6875 19.6233 19.0613 19.3422 19.3423C19.0612 19.6234 18.6874 19.7925 18.2908 19.8182C18.0887 19.8249 17.8874 19.7895 17.6996 19.7144C17.5118 19.6393 17.3417 19.5261 17.1999 19.3818L9.9999 12.2036L2.82172 19.3818C2.67996 19.5261 2.50981 19.6393 2.32204 19.7144C2.13426 19.7895 1.93294 19.8249 1.73081 19.8182C1.32678 19.7972 0.944867 19.6272 0.658789 19.3411C0.37271 19.055 0.202751 18.6731 0.181721 18.2691C0.179747 18.0741 0.217407 17.8807 0.292417 17.7007C0.367426 17.5206 0.478222 17.3577 0.618085 17.2218L7.8399 10L0.596267 2.75637C0.460342 2.61862 0.353578 2.45488 0.282353 2.27494C0.211128 2.095 0.176902 1.90256 0.181721 1.70909C0.207389 1.31246 0.376538 0.938733 0.657585 0.657686C0.938632 0.376639 1.31236 0.20749 1.70899 0.181822C1.90955 0.172296 2.10992 0.204188 2.29761 0.27551C2.4853 0.346832 2.65628 0.456055 2.7999 0.596367V0.596367Z" fill="#312D2D"/>
</svg>
