<svg width="20" height="20" viewBox="0 0 20 20" fill="none" xmlns="http://www.w3.org/2000/svg">
  <rect width="20" height="20" rx="2" fill="#D81B5D"/>
  <path d="M6.58008 12.0176C6.58008 12.6621 6.34733 13.1699 5.88184 13.541C5.4196 13.9121 4.77507 14.0977 3.94824 14.0977C3.18652 14.0977 2.5127 13.9544 1.92676 13.668V12.2617C2.40853 12.4766 2.81543 12.6279 3.14746 12.7158C3.48275 12.8037 3.78874 12.8477 4.06543 12.8477C4.39746 12.8477 4.65137 12.7842 4.82715 12.6572C5.00618 12.5303 5.0957 12.3415 5.0957 12.0908C5.0957 11.9508 5.05664 11.8271 4.97852 11.7197C4.90039 11.609 4.78483 11.5033 4.63184 11.4023C4.4821 11.3014 4.17448 11.1403 3.70898 10.9189C3.27279 10.7139 2.94564 10.5169 2.72754 10.3281C2.50944 10.1393 2.33529 9.9196 2.20508 9.66895C2.07487 9.41829 2.00977 9.12533 2.00977 8.79004C2.00977 8.15853 2.22298 7.66211 2.64941 7.30078C3.0791 6.93945 3.67155 6.75879 4.42676 6.75879C4.79785 6.75879 5.15104 6.80273 5.48633 6.89062C5.82487 6.97852 6.17806 7.10221 6.5459 7.26172L6.05762 8.43848C5.67676 8.28223 5.361 8.17318 5.11035 8.11133C4.86296 8.04948 4.61882 8.01855 4.37793 8.01855C4.09147 8.01855 3.87174 8.08529 3.71875 8.21875C3.56576 8.35221 3.48926 8.52637 3.48926 8.74121C3.48926 8.87467 3.52018 8.99186 3.58203 9.09277C3.64388 9.19043 3.74154 9.28646 3.875 9.38086C4.01172 9.47201 4.33236 9.63802 4.83691 9.87891C5.50423 10.1979 5.96159 10.5186 6.20898 10.8408C6.45638 11.1598 6.58008 11.5521 6.58008 12.0176ZM10.584 9.99121H13.416V13.6924C12.957 13.8421 12.5241 13.9463 12.1172 14.0049C11.7135 14.0667 11.3001 14.0977 10.877 14.0977C9.79948 14.0977 8.97591 13.7819 8.40625 13.1504C7.83984 12.5156 7.55664 11.6058 7.55664 10.4209C7.55664 9.26855 7.88542 8.37012 8.54297 7.72559C9.20378 7.08105 10.1185 6.75879 11.2871 6.75879C12.0195 6.75879 12.7259 6.90527 13.4062 7.19824L12.9033 8.40918C12.3825 8.14876 11.8405 8.01855 11.2773 8.01855C10.623 8.01855 10.099 8.23828 9.70508 8.67773C9.3112 9.11719 9.11426 9.70801 9.11426 10.4502C9.11426 11.2249 9.27214 11.8174 9.58789 12.2275C9.9069 12.6344 10.3691 12.8379 10.9746 12.8379C11.2904 12.8379 11.611 12.8053 11.9365 12.7402V11.251H10.584V9.99121ZM15.1201 14V6.86133H16.6338V14H15.1201Z" fill="white"/>
</svg>
