<svg width="72" height="37" viewBox="0 0 72 37" fill="none" xmlns="http://www.w3.org/2000/svg">
  <path fillRule="evenodd" clipRule="evenodd" d="M0.92276 28.3087C4.64069 12.0944 19.1579 0 36.5 0C53.6712 0 68.0731 11.8573 71.9642 27.8308C61.2867 33.6765 49.0315 37 36 37C23.3279 37 11.3899 33.8573 0.92276 28.3087Z" fill="white"/>
  <path d="M40.5417 7.84375C40.1354 7.84375 39.7396 8 39.4271 8.30208L37.2187 10.5104L42.7396 16.0417L44.9479 13.8542C45.5729 13.2187 45.5729 12.2292 44.9479 11.625L41.6458 8.30208C41.3333 8 40.9375 7.84375 40.5417 7.84375ZM36.4792 11.25L28.0417 19.6979L30.7083 19.9896L30.8958 22.375L33.2708 22.5521L33.5729 25.2188L42.0104 16.7708L36.4792 11.25ZM27.4271 20.6667L25.6042 27.6354L32.5833 25.7708L32.3333 23.5208L29.9271 23.3438L29.7396 20.9271" fill="#312D2D"/>
</svg>

