<svg width="19" height="11" viewBox="0 0 19 11" fill="none" xmlns="http://www.w3.org/2000/svg">
<g clip-path="url(#clip0)">
<path d="M13.286 10.5959C11.9155 10.5959 10.7436 10.1301 9.77047 9.19833C8.7973 8.2666 8.31071 7.14466 8.31071 5.83251C8.31071 5.10477 8.04007 4.48177 7.49878 3.96353C6.95749 3.44529 6.30679 3.18617 5.54668 3.18617C4.78657 3.18617 4.13587 3.44529 3.59458 3.96353C3.0533 4.48177 2.78265 5.10477 2.78265 5.83251C2.78265 6.56026 3.0533 7.18325 3.59458 7.70149C4.13587 8.21974 4.78657 8.47886 5.54668 8.47886C6.31831 8.47886 6.97476 8.21422 7.51605 7.68495C7.76942 8.37962 8.13796 9.00813 8.62167 9.57047C7.72336 10.2541 6.69836 10.5959 5.54668 10.5959C4.17618 10.5959 3.00435 10.1301 2.03118 9.19833C1.05801 8.2666 0.571426 7.14466 0.571426 5.83251C0.571426 4.52037 1.05801 3.39843 2.03118 2.46669C3.00435 1.53496 4.17618 1.06909 5.54668 1.06909C6.91718 1.06909 8.08901 1.53496 9.06218 2.46669C10.0354 3.39843 10.5219 4.52037 10.5219 5.83251C10.5219 6.56026 10.7926 7.18325 11.3339 7.70149C11.8752 8.21974 12.5259 8.47886 13.286 8.47886C14.0461 8.47886 14.6968 8.21974 15.2381 7.70149C15.7794 7.18325 16.05 6.56026 16.05 5.83251C16.05 5.10477 15.7794 4.48177 15.2381 3.96353C14.6968 3.44529 14.0461 3.18617 13.286 3.18617C12.5143 3.18617 11.8579 3.4508 11.3166 3.98007C11.0632 3.28541 10.6947 2.6569 10.211 2.09455C11.1093 1.41091 12.1343 1.06909 13.286 1.06909C14.6565 1.06909 15.8283 1.53496 16.8015 2.46669C17.7746 3.39843 18.2612 4.52037 18.2612 5.83251C18.2612 7.14466 17.7746 8.2666 16.8015 9.19833C15.8283 10.1301 14.6565 10.5959 13.286 10.5959Z" fill="white"/>
</g>
<defs>
<clipPath id="clip0">
<rect x="0.571426" y="0.142822" width="17.6898" height="10.4531" fill="white"/>
</clipPath>
</defs>
</svg>
