<svg width="150" height="150" viewBox="0 0 150 150" fill="none" xmlns="http://www.w3.org/2000/svg">
  <path d="M134 90.375C130.063 89 125.875 88.25 121.5 88.25C111.554 88.25 102.016 92.2009 94.9835 99.2335C87.9509 106.266 84 115.804 84 125.75C84 127.875 84.1875 129.937 84.5 132H21.5C18.1848 132 15.0054 130.683 12.6612 128.339C10.317 125.995 9 122.815 9 119.5V44.5C9 37.5625 14.5625 32 21.5 32H121.5C124.815 32 127.995 33.317 130.339 35.6612C132.683 38.0054 134 41.1848 134 44.5V90.375ZM149.625 113.25L118.375 144.5L96.5 122.625L105.875 113.25L118.375 125.75L140.25 103.875L149.625 113.25ZM21.5 44.5V57L71.5 88.25L121.5 57V44.5L71.5 75.75L21.5 44.5Z" fill="white"/>
</svg>
