<svg width="18" height="18" viewBox="0 0 18 18" fill="none" xmlns="http://www.w3.org/2000/svg">
  <g clip-path="url(#clip0)">
    <path d="M16.5 2.25H1.5C1.10218 2.25 0.720644 2.40804 0.43934 2.68934C0.158035 2.97064 0 3.35218 0 3.75L0 14.25C0 14.6478 0.158035 15.0294 0.43934 15.3107C0.720644 15.592 1.10218 15.75 1.5 15.75H16.5C16.8978 15.75 17.2794 15.592 17.5607 15.3107C17.842 15.0294 18 14.6478 18 14.25V3.75C18 3.35218 17.842 2.97064 17.5607 2.68934C17.2794 2.40804 16.8978 2.25 16.5 2.25ZM6 4.5C6.59674 4.5 7.16903 4.73705 7.59099 5.15901C8.01295 5.58097 8.25 6.15326 8.25 6.75C8.25 7.34674 8.01295 7.91903 7.59099 8.34099C7.16903 8.76295 6.59674 9 6 9C5.40326 9 4.83097 8.76295 4.40901 8.34099C3.98705 7.91903 3.75 7.34674 3.75 6.75C3.75 6.15326 3.98705 5.58097 4.40901 5.15901C4.83097 4.73705 5.40326 4.5 6 4.5ZM10.5 13.5H1.5V12.75C1.5 11.25 4.5 10.425 6 10.425C7.5 10.425 10.5 11.25 10.5 12.75V13.5ZM13.3875 10.5H14.625L15.75 12L14.25 13.5C13.275 12.75 12.5475 11.7075 12.21 10.5C12.075 10.02 12 9.5175 12 9C12 8.4825 12.075 7.98 12.21 7.5C12.5475 6.285 13.275 5.25 14.25 4.5L15.75 6L14.625 7.5H13.3875C13.2225 7.9725 13.125 8.475 13.125 9C13.125 9.525 13.2225 10.0275 13.3875 10.5Z" fill="#312D2D" fill-opacity="0.8"/>
  </g>
  <defs>
    <clipPath id="clip0">
      <rect width="18" height="18" fill="white"/>
    </clipPath>
  </defs>
</svg>
