<svg width="18" height="18" viewBox="0 0 18 18" fill="none" xmlns="http://www.w3.org/2000/svg">
  <path d="M3.75 2.25V15.75H8.25V13.125H9.75V15.75H14.25V2.25H3.75ZM5.25 3.75H6.75V5.25H5.25V3.75ZM8.25 3.75H9.75V5.25H8.25V3.75ZM11.25 3.75H12.75V5.25H11.25V3.75ZM5.25 6.75H6.75V8.25H5.25V6.75ZM8.25 6.75H9.75V8.25H8.25V6.75ZM11.25 6.75H12.75V8.25H11.25V6.75ZM5.25 9.75H6.75V11.25H5.25V9.75ZM8.25 9.75H9.75V11.25H8.25V9.75ZM11.25 9.75H12.75V11.25H11.25V9.75ZM5.25 12.75H6.75V14.25H5.25V12.75ZM11.25 12.75H12.75V14.25H11.25V12.75Z" fill="#312D2D" fill-opacity="0.8"/>
</svg>
