<svg width="18" height="18" viewBox="0 0 18 18" fill="none" xmlns="http://www.w3.org/2000/svg">
  <path d="M5.625 9C5.625 8.85082 5.68426 8.70774 5.78975 8.60225C5.89524 8.49676 6.03832 8.4375 6.1875 8.4375H11.25V4.78125C11.25 3.65625 10.0621 2.8125 9 2.8125H3.65625C3.13428 2.81306 2.63384 3.02066 2.26475 3.38975C1.89566 3.75884 1.68806 4.25928 1.6875 4.78125V13.2188C1.68806 13.7407 1.89566 14.2412 2.26475 14.6102C2.63384 14.9793 3.13428 15.1869 3.65625 15.1875H9.28125C9.80322 15.1869 10.3037 14.9793 10.6727 14.6102C11.0418 14.2412 11.2494 13.7407 11.25 13.2188V9.5625H6.1875C6.03832 9.5625 5.89524 9.50324 5.78975 9.39775C5.68426 9.29226 5.625 9.14918 5.625 9Z" fill="#312D2D" fill-opacity="0.8"/>
  <path d="M16.1476 8.60245L13.3351 5.78995C13.2288 5.68892 13.0872 5.63342 12.9405 5.6353C12.7938 5.63718 12.6537 5.69628 12.5499 5.80001C12.4462 5.90373 12.3871 6.04387 12.3852 6.19055C12.3834 6.33723 12.4388 6.47884 12.5399 6.58519L14.3919 8.43757H11.25V9.56257H14.3919L12.5399 11.415C12.4855 11.4667 12.4419 11.5288 12.4119 11.5976C12.3818 11.6664 12.3658 11.7405 12.3649 11.8156C12.3639 11.8906 12.378 11.9651 12.4063 12.0347C12.4346 12.1042 12.4765 12.1674 12.5296 12.2205C12.5827 12.2736 12.6458 12.3155 12.7154 12.3438C12.7849 12.3721 12.8594 12.3862 12.9345 12.3852C13.0096 12.3842 13.0837 12.3683 13.1525 12.3382C13.2213 12.3081 13.2834 12.2646 13.3351 12.2102L16.1476 9.39769C16.253 9.29221 16.3122 9.14919 16.3122 9.00007C16.3122 8.85095 16.253 8.70793 16.1476 8.60245V8.60245Z" fill="#312D2D" fill-opacity="0.8"/>
</svg>
