<svg width="381" height="377" viewBox="0 0 381 377" fill="none" xmlns="http://www.w3.org/2000/svg">
  <path d="M161.123 208.176C161.123 214.621 158.796 219.699 154.141 223.41C149.518 227.121 143.073 228.977 134.805 228.977C127.188 228.977 120.449 227.544 114.59 224.68V210.617C119.408 212.766 123.477 214.279 126.797 215.158C130.15 216.037 133.21 216.477 135.977 216.477C139.297 216.477 141.836 215.842 143.594 214.572C145.384 213.303 146.279 211.415 146.279 208.908C146.279 207.508 145.889 206.271 145.107 205.197C144.326 204.09 143.171 203.033 141.641 202.023C140.143 201.014 137.067 199.403 132.412 197.189C128.05 195.139 124.779 193.169 122.598 191.281C120.417 189.393 118.675 187.196 117.373 184.689C116.071 182.183 115.42 179.253 115.42 175.9C115.42 169.585 117.552 164.621 121.816 161.008C126.113 157.395 132.038 155.588 139.59 155.588C143.301 155.588 146.833 156.027 150.186 156.906C153.571 157.785 157.103 159.022 160.781 160.617L155.898 172.385C152.09 170.822 148.932 169.732 146.426 169.113C143.952 168.495 141.51 168.186 139.102 168.186C136.237 168.186 134.04 168.853 132.51 170.188C130.98 171.522 130.215 173.264 130.215 175.412C130.215 176.747 130.524 177.919 131.143 178.928C131.761 179.904 132.738 180.865 134.072 181.809C135.439 182.72 138.646 184.38 143.691 186.789C150.365 189.979 154.938 193.186 157.412 196.408C159.886 199.598 161.123 203.521 161.123 208.176ZM201.162 187.912H229.482V224.924C224.893 226.421 220.563 227.463 216.494 228.049C212.458 228.667 208.324 228.977 204.092 228.977C193.317 228.977 185.081 225.819 179.385 219.504C173.721 213.156 170.889 204.058 170.889 192.209C170.889 180.686 174.176 171.701 180.752 165.256C187.36 158.811 196.507 155.588 208.193 155.588C215.518 155.588 222.581 157.053 229.385 159.982L224.355 172.092C219.147 169.488 213.727 168.186 208.096 168.186C201.553 168.186 196.312 170.383 192.373 174.777C188.434 179.172 186.465 185.08 186.465 192.502C186.465 200.249 188.044 206.174 191.201 210.275C194.391 214.344 199.014 216.379 205.068 216.379C208.226 216.379 211.432 216.053 214.688 215.402V200.51H201.162V187.912ZM246.523 228V156.613H261.66V228H246.523Z" fill="#D81B5D"/>
    <circle cx="190" cy="25" r="25" fill="#D81B5D"/>
    <circle cx="25" cy="190" r="25" fill="#D81B5D"/>
    <circle cx="356" cy="190" r="25" fill="#D81B5D"/>
    <circle cx="190" cy="352" r="25" fill="#D81B5D"/>
    <circle cx="305.758" cy="72.5345" r="25" transform="rotate(45 305.758 72.5345)" fill="#D81B5D"/>
    <circle cx="72.4131" cy="72.5345" r="25" transform="rotate(45 72.4131 72.5345)" fill="#D81B5D"/>
    <circle cx="306.466" cy="306.587" r="25" transform="rotate(45 306.466 306.587)" fill="#D81B5D"/>
    <circle cx="74.5345" cy="303.758" r="25" transform="rotate(45 74.5345 303.758)" fill="#D81B5D"/>
  <path d="M306 74.5L189.5 25L70.5 74.5L20 190.5L75.5 309L189.5 355L306 309L357 190.5L306 74.5Z" stroke="#D81B5D" stroke-width="10"/>
</svg>
