<svg width="331" height="145" viewBox="0 0 331 145" fill="none" xmlns="http://www.w3.org/2000/svg">
<path d="M203.078 90.9688C203.078 97.1562 200.844 102.031 196.375 105.594C191.938 109.156 185.75 110.938 177.812 110.938C170.5 110.938 164.031 109.562 158.406 106.812V93.3125C163.031 95.375 166.938 96.8281 170.125 97.6719C173.344 98.5156 176.281 98.9375 178.938 98.9375C182.125 98.9375 184.562 98.3281 186.25 97.1094C187.969 95.8906 188.828 94.0781 188.828 91.6719C188.828 90.3281 188.453 89.1406 187.703 88.1094C186.953 87.0469 185.844 86.0312 184.375 85.0625C182.938 84.0938 179.984 82.5469 175.516 80.4219C171.328 78.4531 168.188 76.5625 166.094 74.75C164 72.9375 162.328 70.8281 161.078 68.4219C159.828 66.0156 159.203 63.2031 159.203 59.9844C159.203 53.9219 161.25 49.1562 165.344 45.6875C169.469 42.2188 175.156 40.4844 182.406 40.4844C185.969 40.4844 189.359 40.9062 192.578 41.75C195.828 42.5938 199.219 43.7812 202.75 45.3125L198.062 56.6094C194.406 55.1094 191.375 54.0625 188.969 53.4688C186.594 52.875 184.25 52.5781 181.938 52.5781C179.188 52.5781 177.078 53.2188 175.609 54.5C174.141 55.7812 173.406 57.4531 173.406 59.5156C173.406 60.7969 173.703 61.9219 174.297 62.8906C174.891 63.8281 175.828 64.75 177.109 65.6562C178.422 66.5312 181.5 68.125 186.344 70.4375C192.75 73.5 197.141 76.5781 199.516 79.6719C201.891 82.7344 203.078 86.5 203.078 90.9688ZM241.516 71.5156H268.703V107.047C264.297 108.484 260.141 109.484 256.234 110.047C252.359 110.641 248.391 110.938 244.328 110.938C233.984 110.938 226.078 107.906 220.609 101.844C215.172 95.75 212.453 87.0156 212.453 75.6406C212.453 64.5781 215.609 55.9531 221.922 49.7656C228.266 43.5781 237.047 40.4844 248.266 40.4844C255.297 40.4844 262.078 41.8906 268.609 44.7031L263.781 56.3281C258.781 53.8281 253.578 52.5781 248.172 52.5781C241.891 52.5781 236.859 54.6875 233.078 58.9062C229.297 63.125 227.406 68.7969 227.406 75.9219C227.406 83.3594 228.922 89.0469 231.953 92.9844C235.016 96.8906 239.453 98.8438 245.266 98.8438C248.297 98.8438 251.375 98.5312 254.5 97.9062V83.6094H241.516V71.5156ZM285.062 110V41.4688H299.594V110H285.062Z" fill="white"/>
<circle cx="48" cy="134" r="11" fill="white"/>
<path d="M78 91L48 117.4V135" stroke="white" stroke-width="5"/>
<circle cx="113" cy="59" r="11" fill="white"/>
<circle cx="66" cy="11" r="11" fill="white"/>
<circle cx="320" cy="124" r="11" fill="white"/>
<path d="M114 58L78 90" stroke="white" stroke-width="5"/>
<circle cx="11" cy="57" r="11" fill="white"/>
<path d="M44 57L66 41.2578V11" stroke="white" stroke-width="5"/>
<path d="M9 57H42.5699L119.781 122H320" stroke="white" stroke-width="5"/>
</svg>
