<svg width="150" height="150" viewBox="0 0 150 150" fill="none" xmlns="http://www.w3.org/2000/svg">
<path d="M46.0936 104.881L53.9061 95.1188L28.7561 75L53.9061 54.8813L46.0936 45.1188L14.8436 70.1188C14.1114 70.7043 13.5203 71.447 13.1141 72.292C12.7079 73.137 12.4969 74.0625 12.4969 75C12.4969 75.9376 12.7079 76.8631 13.1141 77.708C13.5203 78.553 14.1114 79.2958 14.8436 79.8813L46.0936 104.881ZM103.906 45.1188L96.0936 54.8813L121.244 75L96.0936 95.1188L103.906 104.881L135.156 79.8813C135.888 79.2958 136.479 78.553 136.886 77.708C137.292 76.8631 137.503 75.9376 137.503 75C137.503 74.0625 137.292 73.137 136.886 72.292C136.479 71.447 135.888 70.7043 135.156 70.1188L103.906 45.1188Z" fill="white"/>
<path d="M93.5997 20.0999L68.5997 132.6L56.3934 129.887L81.3934 17.3874L93.5997 20.0999Z" fill="white"/>
</svg>
